<svg id="Layer_1" data-name="Layer 1" xmlns="http://www.w3.org/2000/svg" xmlns:xlink="http://www.w3.org/1999/xlink" viewBox="0 0 886.99 886.99"><defs><style>.cls-1{fill:url(#linear-gradient);}.cls-2{fill:url(#linear-gradient-2);}.cls-3{fill:url(#linear-gradient-3);}.cls-4{fill:url(#linear-gradient-4);}</style><linearGradient id="linear-gradient" x1="56.5" y1="329.51" x2="757.89" y2="329.51" gradientUnits="userSpaceOnUse"><stop offset="0" stop-color="#ffc20e"/><stop offset="1" stop-color="#ed5922"/></linearGradient><linearGradient id="linear-gradient-2" x1="66.23" y1="592.81" x2="592.8" y2="592.81" xlink:href="#linear-gradient"/><linearGradient id="linear-gradient-3" x1="242.11" y1="670.49" x2="943.5" y2="670.49" xlink:href="#linear-gradient"/><linearGradient id="linear-gradient-4" x1="470.35" y1="80.27" x2="748.23" y2="624.03" xlink:href="#linear-gradient"/></defs><path class="cls-1" d="M757.89,496.67c-1.77-139.8-114.76-252.79-254.56-254.56-1.11,0-2.22,0-3.33,0s-2.22,0-3.33,0A443.35,443.35,0,0,0,66.23,592.8a447.36,447.36,0,0,1,0-185.59c36.28-170.47,170.51-304.7,341-341A439.81,439.81,0,0,1,500,97.09,445.25,445.25,0,0,1,706.83,293.17,441.31,441.31,0,0,1,757.89,496.67Z" transform="translate(-56.5 -56.5)"/><path class="cls-2" d="M592.8,933.77a447.36,447.36,0,0,1-185.59,0c-170.47-36.28-304.69-170.5-341-341A439.71,439.71,0,0,1,97.09,500,443.25,443.25,0,0,1,496.67,242.11c-139.8,1.77-252.79,114.76-254.56,254.56,0,1.11,0,2.22,0,3.33s0,2.22,0,3.33A443.35,443.35,0,0,0,592.8,933.77Z" transform="translate(-56.5 -56.5)"/><path class="cls-3" d="M943.5,500a445.32,445.32,0,0,1-9.73,92.8c-36.29,170.46-170.51,304.68-341,341A439.71,439.71,0,0,1,500,902.91,443.25,443.25,0,0,1,242.11,503.33c1.77,139.8,114.76,252.79,254.56,254.56,1.11,0,2.22,0,3.33,0s2.22,0,3.33,0a441.31,441.31,0,0,0,203.5-51.06A445.25,445.25,0,0,0,902.91,500a439.81,439.81,0,0,0,30.86-92.79A445.29,445.29,0,0,1,943.5,500Z" transform="translate(-56.5 -56.5)"/><path class="cls-4" d="M933.77,407.21A439.81,439.81,0,0,1,902.91,500,445.25,445.25,0,0,1,706.83,706.83a441.31,441.31,0,0,1-203.5,51.06c139.8-1.77,252.79-114.76,254.56-254.56,0-1.11,0-2.22,0-3.33s0-2.22,0-3.33a441.31,441.31,0,0,0-51.06-203.5A445.25,445.25,0,0,0,500,97.09a439.81,439.81,0,0,0-92.79-30.86,447.36,447.36,0,0,1,185.59,0C763.27,102.52,897.49,236.74,933.77,407.21Z" transform="translate(-56.5 -56.5)"/></svg>